<?xml version="1.0"?>
<svg version="1.1" xmlns="http://www.w3.org/2000/svg" viewBox="0 0 400 100" role="img" aria-label="The University of Iowa Tippie College of Business"><path fill="#000000" d="M172.51,13.23h-1.73V25.69h1.73v4.54H163V25.69h1.73V13.23H163V8.77h9.51Z"/><path fill="#000000" d="M185.29,30.23H178.4c-2.5,0-4.14-1.64-4.14-4.33V13.09a4,4,0,0,1,3.66-4.31,3.85,3.85,0,0,1,.48,0h6.89c2.5,0,4.13,1.67,4.13,4.32V25.87a4,4,0,0,1-3.62,4.35A4.34,4.34,0,0,1,185.29,30.23Zm-2-4.51V13.23h-3V25.69Z"/><path fill="#000000" d="M192.13,13.24h-1.52V8.78h9v4.46h-1.7l1.55,10.31,3.21-14.79h4.57l3.43,14.79,1.25-10.31h-1.57V8.78h8.89v4.46h-1.48l-2.69,17h-7.25L205,17.58l-2.88,12.66h-7Z"/><path fill="#000000" d="M217.67,25.69h1.63l3.25-16.92h9.72l3.21,16.92H237v4.54h-7.26L229.06,25h-3.61l-.65,5.22h-7.13Zm11-4.63-1.39-8.65-1.42,8.65Z"/><rect x="148.0234375" y="35.16" width="103.953125" height="0.733" style="fill:#000000"/><path fill="#000000" d="M157.203125,42.45109375C157.203125,42.45109375,155.4609375,42.45109375,155.4609375,42.45109375C155.4609375,42.45109375,155.4609375,47.189375,155.4609375,47.189375C155.4609375,47.189375,154.2890625,47.189375,154.2890625,47.189375C154.2890625,47.189375,154.2890625,42.45109375,154.2890625,42.45109375C154.2890625,42.45109375,152.5703125,42.45109375,152.5703125,42.45109375C152.5703125,42.45109375,152.5703125,41.501875,152.5703125,41.501875C152.5703125,41.501875,157.203125,41.501875,157.203125,41.501875C157.203125,41.501875,157.203125,42.45109375,157.203125,42.45109375Z M158.98828125,47.189375C158.98828125,47.189375,157.85546875,47.189375,157.85546875,47.189375C157.85546875,47.189375,157.85546875,42.9628125,157.85546875,42.9628125C157.85546875,42.9628125,158.98828125,42.9628125,158.98828125,42.9628125C158.98828125,42.9628125,158.98828125,47.189375,158.98828125,47.189375Z M157.7890625,41.8690625C157.7890625,41.69979296875,157.845703125,41.56046875,157.958984375,41.45109375C158.072265625,41.34171875,158.2265625,41.28703125,158.421875,41.28703125C158.61458203125,41.28703125,158.76823046875,41.34171875,158.8828125,41.45109375C158.99739453125,41.56046875,159.0546875,41.69979296875,159.0546875,41.8690625C159.0546875,42.0409375,158.99674609375,42.1815625,158.880859375,42.2909375C158.76497265625,42.4003125,158.61198046875,42.455,158.421875,42.455C158.23176953125,42.455,158.07877734375,42.4003125,157.962890625,42.2909375C157.84700390625,42.1815625,157.7890625,42.0409375,157.7890625,41.8690625Z M163.72265625,45.11515625C163.72265625,45.76619921875,163.57487109375,46.28768359375,163.279296875,46.679609375C162.98372265625,47.07153515625,162.58463671875,47.2675,162.08203125,47.2675C161.65494921875,47.2675,161.30989453125,47.1190625,161.046875,46.8221875C161.046875,46.8221875,161.046875,48.814375,161.046875,48.814375C161.046875,48.814375,159.91796875,48.814375,159.91796875,48.814375C159.91796875,48.814375,159.91796875,42.9628125,159.91796875,42.9628125C159.91796875,42.9628125,160.96484375,42.9628125,160.96484375,42.9628125C160.96484375,42.9628125,161.00390625,43.376875,161.00390625,43.376875C161.27734375,43.04875,161.63411328125,42.8846875,162.07421875,42.8846875C162.59505078125,42.8846875,163,43.07739453125,163.2890625,43.4628125C163.578125,43.84823046875,163.72265625,44.37948046875,163.72265625,45.0565625C163.72265625,45.0565625,163.72265625,45.11515625,163.72265625,45.11515625Z M162.59375,45.033125C162.59375,44.63989453125,162.52408984375,44.33651171875,162.384765625,44.12296875C162.24544140625,43.90942578125,162.04296875,43.80265625,161.77734375,43.80265625C161.42317578125,43.80265625,161.1796875,43.93807421875,161.046875,44.20890625C161.046875,44.20890625,161.046875,45.939375,161.046875,45.939375C161.18489453125,46.21801953125,161.43098828125,46.35734375,161.78515625,46.35734375C162.32421875,46.35734375,162.59375,45.9159375,162.59375,45.033125Z M168.2265625,45.11515625C168.2265625,45.76619921875,168.07877734375,46.28768359375,167.783203125,46.679609375C167.48762890625,47.07153515625,167.08854296875,47.2675,166.5859375,47.2675C166.15885546875,47.2675,165.81380078125,47.1190625,165.55078125,46.8221875C165.55078125,46.8221875,165.55078125,48.814375,165.55078125,48.814375C165.55078125,48.814375,164.421875,48.814375,164.421875,48.814375C164.421875,48.814375,164.421875,42.9628125,164.421875,42.9628125C164.421875,42.9628125,165.46875,42.9628125,165.46875,42.9628125C165.46875,42.9628125,165.5078125,43.376875,165.5078125,43.376875C165.78125,43.04875,166.13801953125,42.8846875,166.578125,42.8846875C167.09895703125,42.8846875,167.50390625,43.07739453125,167.79296875,43.4628125C168.08203125,43.84823046875,168.2265625,44.37948046875,168.2265625,45.0565625C168.2265625,45.0565625,168.2265625,45.11515625,168.2265625,45.11515625Z M167.09765625,45.033125C167.09765625,44.63989453125,167.02799609375,44.33651171875,166.888671875,44.12296875C166.74934765625,43.90942578125,166.546875,43.80265625,166.28125,43.80265625C165.92708203125,43.80265625,165.68359375,43.93807421875,165.55078125,44.20890625C165.55078125,44.20890625,165.55078125,45.939375,165.55078125,45.939375C165.68880078125,46.21801953125,165.93489453125,46.35734375,166.2890625,46.35734375C166.828125,46.35734375,167.09765625,45.9159375,167.09765625,45.033125Z M170.1171875,47.189375C170.1171875,47.189375,168.984375,47.189375,168.984375,47.189375C168.984375,47.189375,168.984375,42.9628125,168.984375,42.9628125C168.984375,42.9628125,170.1171875,42.9628125,170.1171875,42.9628125C170.1171875,42.9628125,170.1171875,47.189375,170.1171875,47.189375Z M168.91796875,41.8690625C168.91796875,41.69979296875,168.974609375,41.56046875,169.087890625,41.45109375C169.201171875,41.34171875,169.35546875,41.28703125,169.55078125,41.28703125C169.74348828125,41.28703125,169.89713671875,41.34171875,170.01171875,41.45109375C170.12630078125,41.56046875,170.18359375,41.69979296875,170.18359375,41.8690625C170.18359375,42.0409375,170.12565234375,42.1815625,170.009765625,42.2909375C169.89387890625,42.4003125,169.74088671875,42.455,169.55078125,42.455C169.36067578125,42.455,169.20768359375,42.4003125,169.091796875,42.2909375C168.97591015625,42.1815625,168.91796875,42.0409375,168.91796875,41.8690625Z M172.9921875,47.2675C172.37239453125,47.2675,171.86783984375,47.07739453125,171.478515625,46.6971875C171.08919140625,46.31698046875,170.89453125,45.81046875,170.89453125,45.17765625C170.89453125,45.17765625,170.89453125,45.06828125,170.89453125,45.06828125C170.89453125,44.64380078125,170.9765625,44.26424609375,171.140625,43.929609375C171.3046875,43.59497265625,171.537109375,43.33716015625,171.837890625,43.156171875C172.138671875,42.97518359375,172.48176953125,42.8846875,172.8671875,42.8846875C173.4453125,42.8846875,173.900390625,43.06698046875,174.232421875,43.4315625C174.564453125,43.79614453125,174.73046875,44.31307421875,174.73046875,44.98234375C174.73046875,44.98234375,174.73046875,45.44328125,174.73046875,45.44328125C174.73046875,45.44328125,172.0390625,45.44328125,172.0390625,45.44328125C172.07551953125,45.71932421875,172.185546875,45.94067578125,172.369140625,46.10734375C172.552734375,46.27401171875,172.78515625,46.35734375,173.06640625,46.35734375C173.50130078125,46.35734375,173.84114453125,46.19979296875,174.0859375,45.8846875C174.0859375,45.8846875,174.640625,46.50578125,174.640625,46.50578125C174.47135546875,46.74536328125,174.2421875,46.93221484375,173.953125,47.066328125C173.6640625,47.20044140625,173.34375,47.2675,172.9921875,47.2675Z M172.86328125,43.79875C172.63932421875,43.79875,172.45768359375,43.87426953125,172.318359375,44.0253125C172.17903515625,44.17635546875,172.08984375,44.3925,172.05078125,44.67375C172.05078125,44.67375,173.62109375,44.67375,173.62109375,44.67375C173.62109375,44.67375,173.62109375,44.58390625,173.62109375,44.58390625C173.61588671875,44.33390625,173.54817578125,44.140546875,173.41796875,44.003828125C173.28776171875,43.867109375,173.10286328125,43.79875,172.86328125,43.79875Z M174.546875,47.189375Z M181.90234375,45.29484375C181.85807421875,45.90682421875,181.63216015625,46.38859375,181.224609375,46.74015625C180.81705859375,47.09171875,180.27994921875,47.2675,179.61328125,47.2675C178.88411328125,47.2675,178.310546875,47.02205859375,177.892578125,46.531171875C177.474609375,46.04028515625,177.265625,45.36645703125,177.265625,44.5096875C177.265625,44.5096875,177.265625,44.16203125,177.265625,44.16203125C177.265625,43.61515625,177.36198046875,43.13338671875,177.5546875,42.71671875C177.74739453125,42.30005078125,178.02278515625,41.980390625,178.380859375,41.757734375C178.73893359375,41.535078125,179.15494921875,41.42375,179.62890625,41.42375C180.28515625,41.42375,180.81380078125,41.59953125,181.21484375,41.95109375C181.61588671875,42.30265625,181.84765625,42.79614453125,181.91015625,43.4315625C181.91015625,43.4315625,180.73828125,43.4315625,180.73828125,43.4315625C180.70963671875,43.064375,180.607421875,42.79809765625,180.431640625,42.632734375C180.255859375,42.46737109375,179.98828125,42.3846875,179.62890625,42.3846875C179.23828125,42.3846875,178.94596484375,42.52466015625,178.751953125,42.804609375C178.55794140625,43.08455859375,178.45833203125,43.51880078125,178.453125,44.10734375C178.453125,44.10734375,178.453125,44.53703125,178.453125,44.53703125C178.453125,45.15161328125,178.54622265625,45.60083203125,178.732421875,45.8846875C178.91862109375,46.16854296875,179.21223828125,46.31046875,179.61328125,46.31046875C179.97526171875,46.31046875,180.24544140625,46.22778515625,180.423828125,46.062421875C180.60221484375,45.89705859375,180.70442578125,45.64119921875,180.73046875,45.29484375C180.73046875,45.29484375,181.90234375,45.29484375,181.90234375,45.29484375Z M182.421875,45.03703125C182.421875,44.61776171875,182.50260546875,44.2440625,182.6640625,43.9159375C182.82551953125,43.5878125,183.05794140625,43.33390625,183.361328125,43.15421875C183.66471484375,42.97453125,184.01692578125,42.8846875,184.41796875,42.8846875C184.98828125,42.8846875,185.45377734375,43.05916796875,185.814453125,43.408125C186.17512890625,43.75708203125,186.37630078125,44.23104296875,186.41796875,44.83C186.41796875,44.83,186.42578125,45.1190625,186.42578125,45.1190625C186.42578125,45.7675,186.24479296875,46.28768359375,185.8828125,46.679609375C185.52083203125,47.07153515625,185.03515625,47.2675,184.42578125,47.2675C183.81640625,47.2675,183.330078125,47.0721875,182.966796875,46.6815625C182.603515625,46.2909375,182.421875,45.7596875,182.421875,45.0878125C182.421875,45.0878125,182.421875,45.03703125,182.421875,45.03703125Z M183.55078125,45.1190625C183.55078125,45.52010546875,183.62630078125,45.82674609375,183.77734375,46.038984375C183.92838671875,46.25122265625,184.14453125,46.35734375,184.42578125,46.35734375C184.69921875,46.35734375,184.91276171875,46.25252734375,185.06640625,46.042890625C185.22005078125,45.83325390625,185.296875,45.49796875,185.296875,45.03703125C185.296875,44.64380078125,185.22005078125,44.33911328125,185.06640625,44.12296875C184.91276171875,43.90682421875,184.69661328125,43.79875,184.41796875,43.79875C184.14192578125,43.79875,183.92838671875,43.906171875,183.77734375,44.121015625C183.62630078125,44.335859375,183.55078125,44.66854296875,183.55078125,45.1190625Z M188.3125,47.189375C188.3125,47.189375,187.1796875,47.189375,187.1796875,47.189375C187.1796875,47.189375,187.1796875,41.189375,187.1796875,41.189375C187.1796875,41.189375,188.3125,41.189375,188.3125,41.189375C188.3125,41.189375,188.3125,47.189375,188.3125,47.189375Z M190.43359375,47.189375C190.43359375,47.189375,189.30078125,47.189375,189.30078125,47.189375C189.30078125,47.189375,189.30078125,41.189375,189.30078125,41.189375C189.30078125,41.189375,190.43359375,41.189375,190.43359375,41.189375C190.43359375,41.189375,190.43359375,47.189375,190.43359375,47.189375Z M193.30859375,47.2675C192.68880078125,47.2675,192.18424609375,47.07739453125,191.794921875,46.6971875C191.40559765625,46.31698046875,191.2109375,45.81046875,191.2109375,45.17765625C191.2109375,45.17765625,191.2109375,45.06828125,191.2109375,45.06828125C191.2109375,44.64380078125,191.29296875,44.26424609375,191.45703125,43.929609375C191.62109375,43.59497265625,191.853515625,43.33716015625,192.154296875,43.156171875C192.455078125,42.97518359375,192.79817578125,42.8846875,193.18359375,42.8846875C193.76171875,42.8846875,194.216796875,43.06698046875,194.548828125,43.4315625C194.880859375,43.79614453125,195.046875,44.31307421875,195.046875,44.98234375C195.046875,44.98234375,195.046875,45.44328125,195.046875,45.44328125C195.046875,45.44328125,192.35546875,45.44328125,192.35546875,45.44328125C192.39192578125,45.71932421875,192.501953125,45.94067578125,192.685546875,46.10734375C192.869140625,46.27401171875,193.1015625,46.35734375,193.3828125,46.35734375C193.81770703125,46.35734375,194.15755078125,46.19979296875,194.40234375,45.8846875C194.40234375,45.8846875,194.95703125,46.50578125,194.95703125,46.50578125C194.78776171875,46.74536328125,194.55859375,46.93221484375,194.26953125,47.066328125C193.98046875,47.20044140625,193.66015625,47.2675,193.30859375,47.2675Z M193.1796875,43.79875C192.95573046875,43.79875,192.77408984375,43.87426953125,192.634765625,44.0253125C192.49544140625,44.17635546875,192.40625,44.3925,192.3671875,44.67375C192.3671875,44.67375,193.9375,44.67375,193.9375,44.67375C193.9375,44.67375,193.9375,44.58390625,193.9375,44.58390625C193.93229296875,44.33390625,193.86458203125,44.140546875,193.734375,44.003828125C193.60416796875,43.867109375,193.41926953125,43.79875,193.1796875,43.79875Z M195.640625,45.04484375C195.640625,44.39640625,195.794921875,43.87426953125,196.103515625,43.4784375C196.412109375,43.08260546875,196.828125,42.8846875,197.3515625,42.8846875C197.81510546875,42.8846875,198.17578125,43.04354296875,198.43359375,43.36125C198.43359375,43.36125,198.48046875,42.9628125,198.48046875,42.9628125C198.48046875,42.9628125,199.50390625,42.9628125,199.50390625,42.9628125C199.50390625,42.9628125,199.50390625,47.04875,199.50390625,47.04875C199.50390625,47.41854296875,199.419921875,47.74015625,199.251953125,48.01359375C199.083984375,48.28703125,198.84765625,48.49536328125,198.54296875,48.63859375C198.23828125,48.78182421875,197.88151171875,48.8534375,197.47265625,48.8534375C197.16276171875,48.8534375,196.86067578125,48.79158984375,196.56640625,48.667890625C196.27213671875,48.54419140625,196.04948046875,48.3846875,195.8984375,48.189375C195.8984375,48.189375,196.3984375,47.501875,196.3984375,47.501875C196.6796875,47.81698046875,197.02083203125,47.97453125,197.421875,47.97453125C197.72135546875,47.97453125,197.95442578125,47.894453125,198.12109375,47.734296875C198.28776171875,47.574140625,198.37109375,47.34692578125,198.37109375,47.05265625C198.37109375,47.05265625,198.37109375,46.82609375,198.37109375,46.82609375C198.11067578125,47.12036328125,197.76823046875,47.2675,197.34375,47.2675C196.8359375,47.2675,196.42512890625,47.06893359375,196.111328125,46.671796875C195.79752734375,46.27466015625,195.640625,45.74796875,195.640625,45.09171875C195.640625,45.09171875,195.640625,45.04484375,195.640625,45.04484375Z M196.76953125,45.126875C196.76953125,45.5096875,196.84635546875,45.80981640625,197,46.027265625C197.15364453125,46.24471484375,197.36458203125,46.3534375,197.6328125,46.3534375C197.9765625,46.3534375,198.22265625,46.22453125,198.37109375,45.96671875C198.37109375,45.96671875,198.37109375,44.189375,198.37109375,44.189375C198.22005078125,43.9315625,197.9765625,43.80265625,197.640625,43.80265625C197.36979296875,43.80265625,197.15690234375,43.91333203125,197.001953125,44.1346875C196.84700390625,44.35604296875,196.76953125,44.68676953125,196.76953125,45.126875Z M202.31640625,47.2675C201.69661328125,47.2675,201.19205859375,47.07739453125,200.802734375,46.6971875C200.41341015625,46.31698046875,200.21875,45.81046875,200.21875,45.17765625C200.21875,45.17765625,200.21875,45.06828125,200.21875,45.06828125C200.21875,44.64380078125,200.30078125,44.26424609375,200.46484375,43.929609375C200.62890625,43.59497265625,200.861328125,43.33716015625,201.162109375,43.156171875C201.462890625,42.97518359375,201.80598828125,42.8846875,202.19140625,42.8846875C202.76953125,42.8846875,203.224609375,43.06698046875,203.556640625,43.4315625C203.888671875,43.79614453125,204.0546875,44.31307421875,204.0546875,44.98234375C204.0546875,44.98234375,204.0546875,45.44328125,204.0546875,45.44328125C204.0546875,45.44328125,201.36328125,45.44328125,201.36328125,45.44328125C201.39973828125,45.71932421875,201.509765625,45.94067578125,201.693359375,46.10734375C201.876953125,46.27401171875,202.109375,46.35734375,202.390625,46.35734375C202.82551953125,46.35734375,203.16536328125,46.19979296875,203.41015625,45.8846875C203.41015625,45.8846875,203.96484375,46.50578125,203.96484375,46.50578125C203.79557421875,46.74536328125,203.56640625,46.93221484375,203.27734375,47.066328125C202.98828125,47.20044140625,202.66796875,47.2675,202.31640625,47.2675Z M202.1875,43.79875C201.96354296875,43.79875,201.78190234375,43.87426953125,201.642578125,44.0253125C201.50325390625,44.17635546875,201.4140625,44.3925,201.375,44.67375C201.375,44.67375,202.9453125,44.67375,202.9453125,44.67375C202.9453125,44.67375,202.9453125,44.58390625,202.9453125,44.58390625C202.94010546875,44.33390625,202.87239453125,44.140546875,202.7421875,44.003828125C202.61198046875,43.867109375,202.42708203125,43.79875,202.1875,43.79875Z M203.87109375,47.189375Z M206.51171875,45.03703125C206.51171875,44.61776171875,206.59244921875,44.2440625,206.75390625,43.9159375C206.91536328125,43.5878125,207.14778515625,43.33390625,207.451171875,43.15421875C207.75455859375,42.97453125,208.10676953125,42.8846875,208.5078125,42.8846875C209.078125,42.8846875,209.54362109375,43.05916796875,209.904296875,43.408125C210.26497265625,43.75708203125,210.46614453125,44.23104296875,210.5078125,44.83C210.5078125,44.83,210.515625,45.1190625,210.515625,45.1190625C210.515625,45.7675,210.33463671875,46.28768359375,209.97265625,46.679609375C209.61067578125,47.07153515625,209.125,47.2675,208.515625,47.2675C207.90625,47.2675,207.419921875,47.0721875,207.056640625,46.6815625C206.693359375,46.2909375,206.51171875,45.7596875,206.51171875,45.0878125C206.51171875,45.0878125,206.51171875,45.03703125,206.51171875,45.03703125Z M207.640625,45.1190625C207.640625,45.52010546875,207.71614453125,45.82674609375,207.8671875,46.038984375C208.01823046875,46.25122265625,208.234375,46.35734375,208.515625,46.35734375C208.7890625,46.35734375,209.00260546875,46.25252734375,209.15625,46.042890625C209.30989453125,45.83325390625,209.38671875,45.49796875,209.38671875,45.03703125C209.38671875,44.64380078125,209.30989453125,44.33911328125,209.15625,44.12296875C209.00260546875,43.90682421875,208.78645703125,43.79875,208.5078125,43.79875C208.23176953125,43.79875,208.01823046875,43.906171875,207.8671875,44.121015625C207.71614453125,44.335859375,207.640625,44.66854296875,207.640625,45.1190625Z M211.51953125,47.189375C211.51953125,47.189375,211.51953125,43.7909375,211.51953125,43.7909375C211.51953125,43.7909375,210.890625,43.7909375,210.890625,43.7909375C210.890625,43.7909375,210.890625,42.9628125,210.890625,42.9628125C210.890625,42.9628125,211.51953125,42.9628125,211.51953125,42.9628125C211.51953125,42.9628125,211.51953125,42.6034375,211.51953125,42.6034375C211.51953125,42.12948046875,211.65559765625,41.761640625,211.927734375,41.499921875C212.19987109375,41.238203125,212.58073046875,41.10734375,213.0703125,41.10734375C213.2265625,41.10734375,213.41796875,41.13338671875,213.64453125,41.18546875C213.64453125,41.18546875,213.6328125,42.06046875,213.6328125,42.06046875C213.5390625,42.03703125,213.42448046875,42.0253125,213.2890625,42.0253125C212.86458203125,42.0253125,212.65234375,42.22453125,212.65234375,42.62296875C212.65234375,42.62296875,212.65234375,42.9628125,212.65234375,42.9628125C212.65234375,42.9628125,213.4921875,42.9628125,213.4921875,42.9628125C213.4921875,42.9628125,213.4921875,43.7909375,213.4921875,43.7909375C213.4921875,43.7909375,212.65234375,43.7909375,212.65234375,43.7909375C212.65234375,43.7909375,212.65234375,47.189375,212.65234375,47.189375C212.65234375,47.189375,211.51953125,47.189375,211.51953125,47.189375Z M213.25390625,47.189375Z M216.14453125,47.189375C216.14453125,47.189375,216.14453125,41.501875,216.14453125,41.501875C216.14453125,41.501875,218.13671875,41.501875,218.13671875,41.501875C218.82682421875,41.501875,219.35026171875,41.63403515625,219.70703125,41.898359375C220.06380078125,42.16268359375,220.2421875,42.55005078125,220.2421875,43.06046875C220.2421875,43.33911328125,220.17057421875,43.58455859375,220.02734375,43.796796875C219.88411328125,44.00903515625,219.68489453125,44.16463671875,219.4296875,44.26359375C219.72135546875,44.33651171875,219.951171875,44.48364453125,220.119140625,44.705C220.287109375,44.92635546875,220.37109375,45.1971875,220.37109375,45.5175C220.37109375,46.064375,220.19661328125,46.4784375,219.84765625,46.7596875C219.49869921875,47.0409375,219.00130078125,47.18416796875,218.35546875,47.189375C218.35546875,47.189375,216.14453125,47.189375,216.14453125,47.189375Z M217.31640625,44.7128125C217.31640625,44.7128125,217.31640625,46.24796875,217.31640625,46.24796875C217.31640625,46.24796875,218.3203125,46.24796875,218.3203125,46.24796875C218.59635546875,46.24796875,218.81184765625,46.18221484375,218.966796875,46.050703125C219.12174609375,45.91919140625,219.19921875,45.73755078125,219.19921875,45.50578125C219.19921875,44.98494921875,218.9296875,44.720625,218.390625,44.7128125C218.390625,44.7128125,217.31640625,44.7128125,217.31640625,44.7128125Z M217.31640625,43.8846875C217.31640625,43.8846875,218.18359375,43.8846875,218.18359375,43.8846875C218.77473828125,43.87426953125,219.0703125,43.63859375,219.0703125,43.17765625C219.0703125,42.91984375,218.99544140625,42.734296875,218.845703125,42.621015625C218.69596484375,42.507734375,218.45963671875,42.45109375,218.13671875,42.45109375C218.13671875,42.45109375,217.31640625,42.45109375,217.31640625,42.45109375C217.31640625,42.45109375,217.31640625,43.8846875,217.31640625,43.8846875Z M223.70703125,46.7596875C223.42838671875,47.09823046875,223.04296875,47.2675,222.55078125,47.2675C222.09765625,47.2675,221.751953125,47.13729296875,221.513671875,46.876875C221.275390625,46.61645703125,221.15364453125,46.23494921875,221.1484375,45.73234375C221.1484375,45.73234375,221.1484375,42.9628125,221.1484375,42.9628125C221.1484375,42.9628125,222.27734375,42.9628125,222.27734375,42.9628125C222.27734375,42.9628125,222.27734375,45.69328125,222.27734375,45.69328125C222.27734375,46.13338671875,222.47786328125,46.3534375,222.87890625,46.3534375C223.26171875,46.3534375,223.52473828125,46.220625,223.66796875,45.955C223.66796875,45.955,223.66796875,42.9628125,223.66796875,42.9628125C223.66796875,42.9628125,224.80078125,42.9628125,224.80078125,42.9628125C224.80078125,42.9628125,224.80078125,47.189375,224.80078125,47.189375C224.80078125,47.189375,223.73828125,47.189375,223.73828125,47.189375C223.73828125,47.189375,223.70703125,46.7596875,223.70703125,46.7596875Z M227.94140625,46.02140625C227.94140625,45.88338671875,227.873046875,45.77466015625,227.736328125,45.695234375C227.599609375,45.61580859375,227.38020703125,45.54484375,227.078125,45.48234375C226.07291796875,45.27140625,225.5703125,44.84432421875,225.5703125,44.20109375C225.5703125,43.82609375,225.72591015625,43.51294140625,226.037109375,43.261640625C226.34830859375,43.01033984375,226.75520703125,42.8846875,227.2578125,42.8846875C227.79426953125,42.8846875,228.22330859375,43.01098828125,228.544921875,43.26359375C228.86653515625,43.51619921875,229.02734375,43.84432421875,229.02734375,44.24796875C229.02734375,44.24796875,227.8984375,44.24796875,227.8984375,44.24796875C227.8984375,44.08651171875,227.84635546875,43.953046875,227.7421875,43.847578125C227.63801953125,43.742109375,227.47526171875,43.689375,227.25390625,43.689375C227.06380078125,43.689375,226.91666796875,43.73234375,226.8125,43.81828125C226.70833203125,43.90421875,226.65625,44.01359375,226.65625,44.14640625C226.65625,44.27140625,226.71549609375,44.37231640625,226.833984375,44.449140625C226.95247265625,44.52596484375,227.15234375,44.59237109375,227.43359375,44.648359375C227.71484375,44.70434765625,227.95182421875,44.7675,228.14453125,44.8378125C228.74088671875,45.0565625,229.0390625,45.43546875,229.0390625,45.97453125C229.0390625,46.35994921875,228.87369921875,46.671796875,228.54296875,46.910078125C228.21223828125,47.148359375,227.78515625,47.2675,227.26171875,47.2675C226.90755078125,47.2675,226.59309765625,47.20434765625,226.318359375,47.078046875C226.04362109375,46.95174609375,225.828125,46.77856640625,225.671875,46.558515625C225.515625,46.33846484375,225.4375,46.10083203125,225.4375,45.845625C225.4375,45.845625,226.5078125,45.845625,226.5078125,45.845625C226.51823046875,46.04614453125,226.59244921875,46.19979296875,226.73046875,46.3065625C226.86848828125,46.41333203125,227.05338671875,46.46671875,227.28515625,46.46671875C227.50130078125,46.46671875,227.66471484375,46.425703125,227.775390625,46.343671875C227.88606640625,46.261640625,227.94140625,46.15421875,227.94140625,46.02140625Z M230.83984375,47.189375C230.83984375,47.189375,229.70703125,47.189375,229.70703125,47.189375C229.70703125,47.189375,229.70703125,42.9628125,229.70703125,42.9628125C229.70703125,42.9628125,230.83984375,42.9628125,230.83984375,42.9628125C230.83984375,42.9628125,230.83984375,47.189375,230.83984375,47.189375Z M229.640625,41.8690625C229.640625,41.69979296875,229.697265625,41.56046875,229.810546875,41.45109375C229.923828125,41.34171875,230.078125,41.28703125,230.2734375,41.28703125C230.46614453125,41.28703125,230.61979296875,41.34171875,230.734375,41.45109375C230.84895703125,41.56046875,230.90625,41.69979296875,230.90625,41.8690625C230.90625,42.0409375,230.84830859375,42.1815625,230.732421875,42.2909375C230.61653515625,42.4003125,230.46354296875,42.455,230.2734375,42.455C230.08333203125,42.455,229.93033984375,42.4003125,229.814453125,42.2909375C229.69856640625,42.1815625,229.640625,42.0409375,229.640625,41.8690625Z M232.80859375,42.9628125C232.80859375,42.9628125,232.84375,43.45109375,232.84375,43.45109375C233.14583203125,43.07348828125,233.55078125,42.8846875,234.05859375,42.8846875C234.50651171875,42.8846875,234.83984375,43.01619921875,235.05859375,43.27921875C235.27734375,43.54223828125,235.38932421875,43.93546875,235.39453125,44.45890625C235.39453125,44.45890625,235.39453125,47.189375,235.39453125,47.189375C235.39453125,47.189375,234.265625,47.189375,234.265625,47.189375C234.265625,47.189375,234.265625,44.48625,234.265625,44.48625C234.265625,44.24666796875,234.21354296875,44.07283984375,234.109375,43.964765625C234.00520703125,43.85669140625,233.83203125,43.80265625,233.58984375,43.80265625C233.27213671875,43.80265625,233.03385546875,43.93807421875,232.875,44.20890625C232.875,44.20890625,232.875,47.189375,232.875,47.189375C232.875,47.189375,231.74609375,47.189375,231.74609375,47.189375C231.74609375,47.189375,231.74609375,42.9628125,231.74609375,42.9628125C231.74609375,42.9628125,232.80859375,42.9628125,232.80859375,42.9628125Z M238.1953125,47.2675C237.57551953125,47.2675,237.07096484375,47.07739453125,236.681640625,46.6971875C236.29231640625,46.31698046875,236.09765625,45.81046875,236.09765625,45.17765625C236.09765625,45.17765625,236.09765625,45.06828125,236.09765625,45.06828125C236.09765625,44.64380078125,236.1796875,44.26424609375,236.34375,43.929609375C236.5078125,43.59497265625,236.740234375,43.33716015625,237.041015625,43.156171875C237.341796875,42.97518359375,237.68489453125,42.8846875,238.0703125,42.8846875C238.6484375,42.8846875,239.103515625,43.06698046875,239.435546875,43.4315625C239.767578125,43.79614453125,239.93359375,44.31307421875,239.93359375,44.98234375C239.93359375,44.98234375,239.93359375,45.44328125,239.93359375,45.44328125C239.93359375,45.44328125,237.2421875,45.44328125,237.2421875,45.44328125C237.27864453125,45.71932421875,237.388671875,45.94067578125,237.572265625,46.10734375C237.755859375,46.27401171875,237.98828125,46.35734375,238.26953125,46.35734375C238.70442578125,46.35734375,239.04426953125,46.19979296875,239.2890625,45.8846875C239.2890625,45.8846875,239.84375,46.50578125,239.84375,46.50578125C239.67448046875,46.74536328125,239.4453125,46.93221484375,239.15625,47.066328125C238.8671875,47.20044140625,238.546875,47.2675,238.1953125,47.2675Z M238.06640625,43.79875C237.84244921875,43.79875,237.66080859375,43.87426953125,237.521484375,44.0253125C237.38216015625,44.17635546875,237.29296875,44.3925,237.25390625,44.67375C237.25390625,44.67375,238.82421875,44.67375,238.82421875,44.67375C238.82421875,44.67375,238.82421875,44.58390625,238.82421875,44.58390625C238.81901171875,44.33390625,238.75130078125,44.140546875,238.62109375,44.003828125C238.49088671875,43.867109375,238.30598828125,43.79875,238.06640625,43.79875Z M242.86328125,46.02140625C242.86328125,45.88338671875,242.794921875,45.77466015625,242.658203125,45.695234375C242.521484375,45.61580859375,242.30208203125,45.54484375,242,45.48234375C240.99479296875,45.27140625,240.4921875,44.84432421875,240.4921875,44.20109375C240.4921875,43.82609375,240.64778515625,43.51294140625,240.958984375,43.261640625C241.27018359375,43.01033984375,241.67708203125,42.8846875,242.1796875,42.8846875C242.71614453125,42.8846875,243.14518359375,43.01098828125,243.466796875,43.26359375C243.78841015625,43.51619921875,243.94921875,43.84432421875,243.94921875,44.24796875C243.94921875,44.24796875,242.8203125,44.24796875,242.8203125,44.24796875C242.8203125,44.08651171875,242.76823046875,43.953046875,242.6640625,43.847578125C242.55989453125,43.742109375,242.39713671875,43.689375,242.17578125,43.689375C241.98567578125,43.689375,241.83854296875,43.73234375,241.734375,43.81828125C241.63020703125,43.90421875,241.578125,44.01359375,241.578125,44.14640625C241.578125,44.27140625,241.63737109375,44.37231640625,241.755859375,44.449140625C241.87434765625,44.52596484375,242.07421875,44.59237109375,242.35546875,44.648359375C242.63671875,44.70434765625,242.87369921875,44.7675,243.06640625,44.8378125C243.66276171875,45.0565625,243.9609375,45.43546875,243.9609375,45.97453125C243.9609375,46.35994921875,243.79557421875,46.671796875,243.46484375,46.910078125C243.13411328125,47.148359375,242.70703125,47.2675,242.18359375,47.2675C241.82942578125,47.2675,241.51497265625,47.20434765625,241.240234375,47.078046875C240.96549609375,46.95174609375,240.75,46.77856640625,240.59375,46.558515625C240.4375,46.33846484375,240.359375,46.10083203125,240.359375,45.845625C240.359375,45.845625,241.4296875,45.845625,241.4296875,45.845625C241.44010546875,46.04614453125,241.51432421875,46.19979296875,241.65234375,46.3065625C241.79036328125,46.41333203125,241.97526171875,46.46671875,242.20703125,46.46671875C242.42317578125,46.46671875,242.58658984375,46.425703125,242.697265625,46.343671875C242.80794140625,46.261640625,242.86328125,46.15421875,242.86328125,46.02140625Z M246.9765625,46.02140625C246.9765625,45.88338671875,246.908203125,45.77466015625,246.771484375,45.695234375C246.634765625,45.61580859375,246.41536328125,45.54484375,246.11328125,45.48234375C245.10807421875,45.27140625,244.60546875,44.84432421875,244.60546875,44.20109375C244.60546875,43.82609375,244.76106640625,43.51294140625,245.072265625,43.261640625C245.38346484375,43.01033984375,245.79036328125,42.8846875,246.29296875,42.8846875C246.82942578125,42.8846875,247.25846484375,43.01098828125,247.580078125,43.26359375C247.90169140625,43.51619921875,248.0625,43.84432421875,248.0625,44.24796875C248.0625,44.24796875,246.93359375,44.24796875,246.93359375,44.24796875C246.93359375,44.08651171875,246.88151171875,43.953046875,246.77734375,43.847578125C246.67317578125,43.742109375,246.51041796875,43.689375,246.2890625,43.689375C246.09895703125,43.689375,245.95182421875,43.73234375,245.84765625,43.81828125C245.74348828125,43.90421875,245.69140625,44.01359375,245.69140625,44.14640625C245.69140625,44.27140625,245.75065234375,44.37231640625,245.869140625,44.449140625C245.98762890625,44.52596484375,246.1875,44.59237109375,246.46875,44.648359375C246.75,44.70434765625,246.98698046875,44.7675,247.1796875,44.8378125C247.77604296875,45.0565625,248.07421875,45.43546875,248.07421875,45.97453125C248.07421875,46.35994921875,247.90885546875,46.671796875,247.578125,46.910078125C247.24739453125,47.148359375,246.8203125,47.2675,246.296875,47.2675C245.94270703125,47.2675,245.62825390625,47.20434765625,245.353515625,47.078046875C245.07877734375,46.95174609375,244.86328125,46.77856640625,244.70703125,46.558515625C244.55078125,46.33846484375,244.47265625,46.10083203125,244.47265625,45.845625C244.47265625,45.845625,245.54296875,45.845625,245.54296875,45.845625C245.55338671875,46.04614453125,245.62760546875,46.19979296875,245.765625,46.3065625C245.90364453125,46.41333203125,246.08854296875,46.46671875,246.3203125,46.46671875C246.53645703125,46.46671875,246.69987109375,46.425703125,246.810546875,46.343671875C246.92122265625,46.261640625,246.9765625,46.15421875,246.9765625,46.02140625Z"/></svg>
